<svg width="529" height="146" viewBox="0 0 529 146" fill="none" xmlns="http://www.w3.org/2000/svg">
<g clip-path="url(#clip0_2_172)">
<g clip-path="url(#clip1_2_172)">
<path d="M54.5312 54.1562C44.3373 54.1562 36.0625 62.4312 36.0625 72.625C36.0625 82.8189 44.3373 91.0938 54.5312 91.0938C64.7252 91.0938 73 82.8189 73 72.625C73 62.4312 64.7252 54.1562 54.5312 54.1562Z" fill="#FF6600"/>
<path d="M92.8438 36.9688C87.3909 36.9688 82.9688 41.3909 82.9688 46.8438C82.9688 52.2966 87.3909 56.7188 92.8438 56.7188C98.2966 56.7188 102.719 52.2966 102.719 46.8438C102.719 41.3909 98.2966 36.9688 92.8438 36.9688Z" fill="#FF6600"/>
<path d="M99.9062 80.4688C91.9798 80.4688 85.5625 86.8861 85.5625 94.8125C85.5625 102.739 91.9798 109.156 99.9062 109.156C107.833 109.156 114.25 102.739 114.25 94.8125C114.25 86.8861 107.833 80.4688 99.9062 80.4688Z" fill="#FF6600"/>
<path d="M80.4062 48.4062L68.5938 56.4062C70.8702 58.3843 72.747 60.8254 74.0312 63.5938L84.7188 56.375C82.401 54.392 80.8024 51.5857 80.4062 48.4062ZM100.5 56.7812C98.3877 58.4129 95.7524 59.4062 92.875 59.4062C92.4948 59.4062 92.1216 59.377 91.75 59.3438L94.2188 78.75C95.999 78.1196 97.9101 77.75 99.9062 77.75C101.039 77.75 102.148 77.8517 103.219 78.0625L100.5 56.7812ZM75.2188 78.4062C74.3939 81.3611 72.9406 84.0494 71.0312 86.3438L83.0625 92.2188C83.5346 89.1293 84.8225 86.3096 86.7188 84L75.2188 78.4062Z" fill="black"/>
</g>
<path d="M456.25 43.2188C446.901 43.2188 439.586 45.7813 434.312 50.9375C429.039 56.0938 426.406 63.2813 426.406 72.5C426.406 81.9792 428.674 89.2474 433.219 94.3125C437.763 99.3776 444.349 101.906 452.969 101.906C456.354 101.906 459.664 101.669 462.906 101.188C466.148 100.706 469.609 99.8854 473.281 98.6875V69.0625H450.625V79.1562H461.469V91.0625C458.865 91.5833 456.276 91.8438 453.75 91.8438C448.906 91.8438 445.227 90.2057 442.688 86.9375C440.148 83.6693 438.875 78.9479 438.875 72.75C438.875 66.8125 440.443 62.0782 443.594 58.5625C446.745 55.0469 450.953 53.2813 456.188 53.2812C460.693 53.2813 465.021 54.323 469.188 56.4062L473.219 46.7188C467.776 44.3751 462.109 43.2188 456.25 43.2188ZM144.188 44.0312V101.125H165.562C172.021 101.125 177.112 99.6667 180.875 96.75C184.638 93.8333 186.531 89.7708 186.531 84.5625C186.531 80.8906 185.727 77.9636 184.125 75.75C182.523 73.5365 179.932 72.0261 176.312 71.2188V70.8125C178.969 70.3698 181.086 69.0625 182.688 66.875C184.289 64.6875 185.094 61.8802 185.094 58.4688C185.094 53.4428 183.253 49.8047 179.594 47.5C175.935 45.1954 170.068 44.0313 161.969 44.0312H144.188ZM365.594 44.0312V101.125H376.406V74.25C376.406 71.9796 376.241 68.2738 376 63.875H379.438L400.875 101.125H416.25V44.0312H405.375V71.0625C405.375 73.2157 405.496 76.8367 405.688 81.125H402.375L380.875 44.0312H365.594ZM156.312 53.9375H162.656C166.12 53.9375 168.648 54.4245 170.25 55.375C171.852 56.3256 172.656 57.9063 172.656 60.0938C172.656 62.4375 171.94 64.1094 170.469 65.125C168.997 66.1407 166.625 66.6563 163.344 66.6562H156.312V53.9375ZM258.969 56.5625C252.849 56.5625 247.276 57.8698 242.25 60.5L246.188 68.5625C250.901 66.4532 255.01 65.4063 258.5 65.4062C263.031 65.4063 265.281 67.6042 265.281 72.0312V73.9375L257.719 74.1875C251.182 74.4219 246.273 75.6433 243.031 77.8438C239.789 80.0443 238.188 83.4584 238.188 88.0938C238.188 92.5208 239.372 95.9167 241.781 98.3125C244.19 100.708 247.495 101.906 251.688 101.906C251.917 101.906 252.12 101.879 252.344 101.875V101.906L277.094 101.125H277.125V72.0312C277.125 66.823 275.562 62.9584 272.438 60.4062C269.312 57.8542 264.828 56.5625 258.969 56.5625ZM213.375 56.6562C206.917 56.6563 201.846 58.6589 198.188 62.6562C194.529 66.6537 192.719 72.3073 192.719 79.625C192.719 86.7344 194.698 92.2136 198.656 96.0938C202.615 99.974 208.094 101.906 215.125 101.906C218.536 101.906 221.443 101.664 223.812 101.156C226.182 100.648 228.385 99.8854 230.469 98.8438V89.625C227.917 90.8229 225.469 91.6719 223.125 92.2188C220.781 92.7656 218.318 93.0625 215.688 93.0625C212.302 93.0625 209.656 92.0886 207.781 90.1875C205.906 88.2865 204.911 85.6667 204.781 82.2812H232.938V76.5C232.937 70.3021 231.219 65.4219 227.781 61.9062C224.344 58.3907 219.547 56.6563 213.375 56.6562ZM311.781 56.6562C308.917 56.6563 306.37 57.211 304.156 58.3438C301.943 59.4766 300.234 61.0573 299.062 63.0625H298.406L296.812 57.4688H287.719V101.125H299.625V80.5938C299.625 75.4636 300.307 71.7709 301.688 69.5312C303.068 67.2917 305.297 66.1875 308.344 66.1875C310.609 66.1875 312.258 66.9558 313.312 68.5312C314.367 70.1068 314.906 72.474 314.906 75.625V101.125H326.812V79.2188C326.812 74.6875 327.523 71.3959 328.969 69.3125C330.414 67.2292 332.615 66.1875 335.531 66.1875C337.797 66.1875 339.445 66.9558 340.5 68.5312C341.555 70.1068 342.094 72.474 342.094 75.625V101.125H354.031V72.6562C354.031 67.0573 352.758 63.0079 350.219 60.4688C347.68 57.9297 343.948 56.6563 339 56.6562C336.135 56.6563 333.56 57.1928 331.281 58.3125C329.003 59.4323 327.266 61.0313 326.094 63.0625H325.062C322.745 58.7917 318.318 56.6563 311.781 56.6562ZM213.438 65.125C215.964 65.125 217.984 65.9297 219.469 67.5312C220.953 69.1328 221.729 71.4011 221.781 74.3438H205.062C205.271 71.4011 206.068 69.1328 207.5 67.5312C208.932 65.9297 210.911 65.125 213.438 65.125ZM156.312 76.25H163.812C170.583 76.25 173.969 78.6354 173.969 83.375C173.969 86.0052 173.151 87.9427 171.562 89.2188C169.974 90.4948 167.521 91.125 164.188 91.125H156.312V76.25ZM265.281 80.9062V84.5C265.281 87.1302 264.466 89.224 262.812 90.8125C261.159 92.4011 258.948 93.2188 256.188 93.2188C252.333 93.2188 250.406 91.5156 250.406 88.1562C250.406 85.8125 251.245 84.0834 252.938 82.9375C254.63 81.7917 257.224 81.1667 260.688 81.0625L265.281 80.9062Z" fill="black"/>
</g>
<defs>
<clipPath id="clip0_2_172">
<rect width="437" height="74" fill="white" transform="translate(36 36)"/>
</clipPath>
<clipPath id="clip1_2_172">
<rect width="78.1875" height="72.1875" fill="white" transform="translate(36.0625 36.9688)"/>
</clipPath>
</defs>
</svg>
